<svg width="189" height="40" viewBox="0 0 189 40" fill="none" xmlns="http://www.w3.org/2000/svg">
<g clip-path="url(#clip0)">
<path d="M105.069 20.2803L93.142 29.7567L80.3615 40L60.3966 20.3674L72.2595 10.5566L73.6777 9.20707L84.8154 0L105.069 20.2803Z" fill="white"/>
<path d="M106.947 25.941L110.382 9.97916H104.109L102.429 17.6421L105.104 20.2715L101.172 23.3913L99.6055 30.5317H113.201L114.235 25.941H106.947Z" fill="#767FDE"/>
<path d="M65.8721 15.8476C65.8897 15.7796 65.9094 15.7027 65.9248 15.6347C66.2197 14.302 65.0847 9.97916 60.6535 9.97916H47.2487L42.7831 30.5317H48.9406L50.6838 22.5951H54.1351C57.3325 22.5951 57.2746 23.6518 56.6724 26.3874C56.2216 28.4511 56.7024 29.8518 56.8765 30.5317H63.3254C62.9682 29.9389 62.8116 28.907 63.1431 25.9139C63.2712 24.7364 63.3254 23.8699 63.2895 23.2156L60.3995 20.371L65.8721 15.8476ZM59.2235 16.6929C58.7851 18.6747 57.6149 18.9696 55.3661 18.9696H51.4457L52.4929 14.3533H56.7258C59.2645 14.3533 59.4569 15.6347 59.2235 16.6929Z" fill="#767FDE"/>
<path d="M40.7077 30.531H34.5918L35.0192 28.514H34.9416C33.1918 30.7 31.3755 31.2145 28.4416 31.2145C24.2797 31.2145 21.5427 28.5799 22.688 23.3649L25.6819 9.97769H31.8855L28.9956 22.8139C28.5221 24.972 29.6205 26.5762 31.4282 26.5762C32.1146 26.5762 35.5476 26.2169 36.4894 21.9306L39.1211 9.97769H45.2355L40.7077 30.531Z" fill="#767FDE"/>
<path d="M127.444 9.97913H133.561L133.136 11.9572H133.212C135.119 9.58029 138.274 9.53418 139.675 9.53418C143.838 9.53418 146.575 12.1651 145.426 17.3801L142.47 30.5324H136.267L139.095 18.0702C139.568 15.9128 138.402 14.1234 136.596 14.1234C135.909 14.1234 132.607 14.2559 131.665 18.5371L129.036 30.5324H122.917L127.444 9.97913Z" fill="#767FDE"/>
<path d="M120.659 30.5309L125.181 9.97839H118.905L114.384 30.5309H120.659Z" fill="#767FDE"/>
<path d="M122.422 8.96996C124.418 8.96996 126.319 7.35263 126.668 5.3606C127.02 3.36492 125.689 1.74979 123.695 1.74979C121.702 1.74979 119.803 3.36492 119.45 5.3606C119.098 7.35263 120.431 8.96996 122.422 8.96996Z" fill="#9F8AF5"/>
<path d="M21.2265 23.6203C18.9769 28.0676 14.2142 31.2767 9.2824 31.2767C3.14899 31.2767 -0.923607 26.3039 0.180714 20.1764C1.28577 14.0415 7.15353 9.07242 13.2869 9.07242C19.4196 9.07242 23.4922 14.0415 22.3872 20.1764C22.2854 20.7333 22.1449 21.2851 21.9671 21.8244H6.04921C6.12971 24.5798 7.75582 26.6091 10.1233 26.6091C11.9353 26.6091 13.7421 25.4096 14.9701 23.6203H21.2265V23.6203ZM16.455 17.7548C16.1184 15.3983 14.5837 13.7363 12.4453 13.7363C10.3026 13.7363 8.17149 15.3983 6.98887 17.7548H16.455Z" fill="#767FDE"/>
<path d="M166.921 23.6203C164.679 28.0676 159.921 31.2767 154.988 31.2767C148.858 31.2767 144.775 26.3039 145.871 20.1764C146.966 14.0415 152.825 9.07242 158.96 9.07242C165.091 9.07242 169.174 14.0415 168.08 20.1764C167.975 20.7333 167.835 21.2851 167.661 21.8244H151.745C151.826 24.5798 153.454 26.6091 155.824 26.6091C157.634 26.6091 159.438 25.4096 160.666 23.6203H166.921V23.6203ZM162.14 17.7548C161.801 15.3983 160.265 13.7363 158.126 13.7363C155.984 13.7363 153.851 15.3983 152.676 17.7548H162.14Z" fill="#767FDE"/>
<path d="M177.332 22.5036C178.328 22.4845 179.272 22.4633 180.116 22.568C180.724 22.6433 181.215 22.8051 181.467 23.2383C181.712 23.6569 181.73 24.1714 181.517 24.6888C180.862 26.2842 178.844 26.7072 177.755 26.7072C175.355 26.7072 174.015 25.567 173.714 23.6496H167.82C167.957 28.716 172.705 31.3806 176.963 31.3286C180.577 31.2832 185.39 30.217 187.458 25.2786C189.151 21.2382 186.778 18.712 183.958 18.0826C182.82 17.8236 181.493 17.8521 180.2 17.8748C179.209 17.8967 178.271 17.9136 177.432 17.8096C176.825 17.7379 176.344 17.5777 176.093 17.1415C175.849 16.7229 175.83 16.2077 176.045 15.6881C176.603 14.3335 178.08 13.7078 179.3 13.7078C181.054 13.7078 182.728 14.9402 182.878 16.7273H188.777C188.644 11.8453 184.206 9.20414 180.077 9.0607C176.535 8.94141 172.065 10.4138 170.101 15.1034C168.409 19.1423 170.783 21.6664 173.603 22.2979C174.729 22.5526 176.053 22.5277 177.332 22.5036Z" fill="#767FDE"/>
<path d="M83.9372 13.7363C80.9989 13.7363 78.2934 16.6182 77.6508 20.1713C77.0127 23.7243 78.6776 26.604 81.6166 26.604C84.5526 26.604 87.1865 23.7243 87.8283 20.1713C88.4694 16.6182 86.8733 13.7363 83.9372 13.7363Z" fill="#9F8AF5"/>
<path d="M80.742 31.2547C79.1108 31.2547 77.634 30.9005 76.3548 30.266H72.056L80.5064 38.5795L90.8771 30.266H85.4821C83.9745 30.8998 82.366 31.2547 80.742 31.2547Z" fill="#9F8AF5"/>
<path d="M71.6455 20.1661C72.2932 16.586 74.564 13.4158 77.5579 11.385H73.0235L62.0703 20.4471L70.8888 29.1193H74.5947C72.2002 27.1016 70.9825 23.8487 71.6455 20.1661Z" fill="#9F8AF5"/>
<path d="M84.7422 9.07169C86.5154 9.07169 88.1108 9.49761 89.4632 10.2411H93.3507L84.6969 1.73077L74.4103 10.2411H79.596C81.217 9.49761 82.9654 9.07169 84.7422 9.07169Z" fill="#9F8AF5"/>
<path d="M93.8329 20.1661C93.1699 23.8487 90.7783 27.1016 87.6541 29.1185H92.3122L103.461 20.183L94.5142 11.385H91.0886C93.3506 13.4158 94.4798 16.586 93.8329 20.1661Z" fill="#9F8AF5"/>
</g>
<defs>
<clipPath id="clip0">
<rect width="188.776" height="40" fill="white"/>
</clipPath>
</defs>
</svg>
