<svg width="176" height="176" viewBox="0 0 176 176" fill="none" xmlns="http://www.w3.org/2000/svg">
<rect width="176" height="176" rx="30" fill="#34297A"/>
<path d="M107.649 40.5994H92.791L99.7445 23.406C100.633 23.6394 101.51 23.8921 102.356 24.1817C102.68 24.2924 103.01 24.345 103.334 24.345C104.579 24.345 105.744 23.5689 106.173 22.3339C106.713 20.7771 105.88 19.0802 104.312 18.5434C94.403 15.1522 81.597 15.1522 71.688 18.5434C70.12 19.0802 69.2875 20.7771 69.8275 22.3339C70.368 23.8907 72.076 24.7175 73.644 24.1817C74.49 23.8921 75.366 23.6394 76.2555 23.406L83.209 40.5994H68.3505C57.1115 40.5994 48 49.6487 48 60.812V119.781C48 130.943 57.112 139.993 68.3505 139.993H71.085L56.168 160H63.3135L64.9165 157.85H111.085L112.688 160H119.832L104.915 139.993H107.649C118.889 139.993 128 130.943 128 119.781V60.812C128 49.6487 118.888 40.5994 107.649 40.5994ZM82.269 22.2767C86.042 21.8348 89.958 21.8348 93.731 22.2767L88 36.4464L82.269 22.2767ZM77.877 48.2414H98.123C100.168 48.2414 101.826 49.8875 101.826 51.9201C101.826 53.9511 100.168 55.5978 98.123 55.5978H77.877C75.832 55.5978 74.1735 53.9511 74.1735 51.9201C74.1735 49.8875 75.832 48.2414 77.877 48.2414ZM67.6365 125.108C64.298 125.108 61.5825 122.411 61.5825 119.095V117.398C61.5825 114.082 64.2985 111.386 67.6365 111.386H70.712C74.051 111.386 76.7665 114.082 76.7665 117.398V119.095C76.7665 122.411 74.0505 125.108 70.712 125.108H67.6365ZM68.843 152.585L72.7285 147.375H103.272L107.158 152.585H68.843ZM99.346 142.11H76.655L78.2335 139.993H97.7675L99.346 142.11ZM114.418 119.095C114.418 122.411 111.702 125.108 108.364 125.108H105.288C101.949 125.108 99.234 122.411 99.234 119.095V117.398C99.234 114.082 101.95 111.386 105.288 111.386H108.364C111.702 111.386 114.418 114.082 114.418 117.398V119.095ZM116.949 94.3843H59.051V64.9168H116.95V94.3843H116.949Z" fill="white"/>
</svg>
