<svg width="210" height="40" viewBox="0 0 210 40" fill="none" xmlns="http://www.w3.org/2000/svg">
<path d="M5.66667 2.14999C4.75897 2.14998 3.88821 2.50942 3.24481 3.14969C2.60141 3.78997 2.23774 4.65898 2.23334 5.56666V37.8667H11.3667V23.8333H24.3167C25.2272 23.8333 26.1005 23.4716 26.7444 22.8277C27.3883 22.1839 27.75 21.3106 27.75 20.4V16.5333H11.3667V11.1667C11.3667 10.7246 11.5423 10.3007 11.8548 9.98815C12.1674 9.67559 12.5913 9.5 13.0333 9.5H28.55C29.4606 9.5 30.3339 9.13827 30.9777 8.4944C31.6216 7.85052 31.9833 6.97724 31.9833 6.06666V2.14999H5.66667Z" fill="#9F8AF5"/>
<path d="M46.8167 30.5167C46.3747 30.5167 45.9507 30.3411 45.6382 30.0285C45.3256 29.716 45.15 29.292 45.15 28.85V5.6C45.15 5.14412 45.0597 4.69276 44.8843 4.272C44.7088 3.85124 44.4517 3.46942 44.1278 3.14862C43.8039 2.82782 43.4196 2.57439 42.9972 2.40299C42.5748 2.23158 42.1225 2.1456 41.6667 2.15H35.9167V34.4167C35.9167 35.3317 36.2802 36.2092 36.9272 36.8562C37.5742 37.5032 38.4517 37.8667 39.3667 37.8667H58.1334C59.0483 37.8667 59.9259 37.5032 60.5729 36.8562C61.2199 36.2092 61.5834 35.3317 61.5834 34.4167V30.5167H46.8167Z" fill="#9F8AF5"/>
<path d="M74.75 37.8667H65.6V19.2167C65.6044 18.3074 65.9675 17.4367 66.6104 16.7938C67.2533 16.1508 68.1241 15.7877 69.0333 15.7833H74.75V37.8667Z" fill="#9F8AF5"/>
<path d="M71.3166 12.45H65.6V5.58333C65.6044 4.6741 65.9675 3.80336 66.6104 3.16044C67.2533 2.51751 68.1241 2.15438 69.0333 2.14999H71.3166C72.2259 2.15438 73.0966 2.51751 73.7395 3.16044C74.3825 3.80336 74.7456 4.6741 74.75 5.58333V9.01666C74.7456 9.92589 74.3825 10.7966 73.7395 11.4396C73.0966 12.0825 72.2259 12.4456 71.3166 12.45" fill="#9F8AF5"/>
<path d="M133.333 32.0667H127.017C126.133 32.0667 125.285 31.7155 124.66 31.0903C124.034 30.4652 123.683 29.6174 123.683 28.7333V22.7333H133.333C134.567 22.7333 135.749 23.2232 136.621 24.0953C137.493 24.9673 137.983 26.1501 137.983 27.3833C137.983 28.6166 137.493 29.7993 136.621 30.6714C135.749 31.5434 134.567 32.0333 133.333 32.0333V32.0667ZM123.717 7.94999H132.3C133.405 7.94999 134.465 8.38898 135.246 9.17038C136.028 9.95178 136.467 11.0116 136.467 12.1167C136.467 13.2217 136.028 14.2815 135.246 15.0629C134.465 15.8443 133.405 16.2833 132.3 16.2833H126.667C125.886 16.2789 125.138 15.9667 124.585 15.4145C124.033 14.8622 123.721 14.1144 123.717 13.3333V7.94999ZM143.117 20.2667C142.917 20.0833 142.367 19.65 142.217 19.5333C143.071 18.5891 143.726 17.4829 144.144 16.2804C144.562 15.0779 144.734 13.8036 144.65 12.5333C144.65 6.01666 140.433 2.16666 133.917 2.16666H119.833C118.928 2.17104 118.062 2.53241 117.422 3.17222C116.782 3.81202 116.421 4.67852 116.417 5.58332V34.4333C116.421 35.3381 116.782 36.2046 117.422 36.8444C118.062 37.4842 118.928 37.8456 119.833 37.85H135.517C142.033 37.85 145.967 34.05 145.967 27.5333C146.009 26.1907 145.776 24.8537 145.283 23.6042C144.79 22.3547 144.047 21.219 143.1 20.2667" fill="#9F8AF5"/>
<path d="M178.033 2.13333H174C173.116 2.13333 172.268 2.48452 171.643 3.10964C171.018 3.73476 170.667 4.58261 170.667 5.46666V26.6667C170.667 29.7167 168.567 31.6667 164.95 31.6667H163.283C159.667 31.6667 157.567 29.6333 157.567 26.6667V2.13333H153.5C152.616 2.13333 151.768 2.48452 151.143 3.10964C150.518 3.73476 150.167 4.58261 150.167 5.46666V27.8667C150.167 34.15 154.483 38.3333 161.95 38.3333H166.267C173.733 38.3333 178.05 34.15 178.05 27.8667L178.033 2.13333Z" fill="#9F8AF5"/>
<path d="M192.4 9.40001H203.95C204.855 9.39562 205.721 9.03425 206.361 8.39445C207.001 7.75464 207.362 6.88814 207.367 5.98334V2.10001H192.367C189.509 2.15673 186.788 3.33187 184.787 5.37303C182.786 7.41418 181.666 10.1585 181.667 13.0167C181.68 15.8295 182.809 18.5221 184.806 20.5033C186.802 22.4844 189.504 23.5922 192.317 23.5833H197.033C197.909 23.6442 198.729 24.035 199.328 24.6768C199.927 25.3187 200.26 26.1638 200.26 27.0417C200.26 27.9195 199.927 28.7646 199.328 29.4065C198.729 30.0484 197.909 30.4392 197.033 30.5H182.033V34.3833C182.038 35.2881 182.399 36.1546 183.039 36.7944C183.679 37.4342 184.545 37.7956 185.45 37.8H197.117C199.98 37.7519 202.71 36.5806 204.718 34.5385C206.725 32.4964 207.85 29.7471 207.85 26.8833C207.841 24.0836 206.725 21.401 204.745 19.4213C202.766 17.4416 200.083 16.3255 197.283 16.3167H192.483C191.608 16.2558 190.788 15.8651 190.189 15.2232C189.59 14.5813 189.257 13.7362 189.257 12.8583C189.257 11.9805 189.59 11.1354 190.189 10.4935C190.788 9.85162 191.608 9.46084 192.483 9.40001" fill="#9F8AF5"/>
<path d="M109.45 31.5L103.333 22.9667L97.9833 30.3167L102.533 36.5833C103.197 37.497 104.197 38.1101 105.312 38.2881C106.427 38.4662 107.568 38.1948 108.483 37.5333H108.583C109.497 36.8693 110.11 35.87 110.288 34.7547C110.466 33.6393 110.195 32.4989 109.533 31.5833" fill="#9F8AF5"/>
<path d="M101.1 20L95.7667 12.65L89.1 3.43332C88.4359 2.51967 87.4367 1.90661 86.3214 1.72852C85.206 1.55044 84.0655 1.82188 83.15 2.48332H83.05C82.1364 3.14738 81.5233 4.14662 81.3452 5.26197C81.1671 6.37732 81.4386 7.51778 82.1 8.43332L90.4333 19.9167L82.1 31.4167C81.4359 32.3328 81.1613 33.4745 81.3362 34.5925C81.5111 35.7104 82.1212 36.7137 83.0333 37.3833H83.1333C84.0489 38.0448 85.1893 38.3162 86.3047 38.1381C87.42 37.96 88.4193 37.347 89.0833 36.4333L94.0833 29.6667L101.1 20Z" fill="#9F8AF5"/>
<path d="M108.517 2.55H108.417C107.501 1.88856 106.361 1.61712 105.245 1.79521C104.13 1.97329 103.131 2.58635 102.467 3.5L97.9167 9.68334L103.333 17.0333L109.45 8.50001C110.111 7.58446 110.383 6.444 110.205 5.32865C110.027 4.2133 109.414 3.21406 108.5 2.55" fill="#9F8AF5"/>
</svg>
