<svg width="62" height="112" viewBox="0 0 62 112" fill="none" xmlns="http://www.w3.org/2000/svg">
<path d="M46.2284 19.1328H34.713L40.102 5.76021C40.791 5.94175 41.4699 6.13834 42.1259 6.36351C42.377 6.44964 42.6327 6.49059 42.8838 6.49059C43.8491 6.49059 44.7512 5.8869 45.0837 4.92633C45.5022 3.71549 44.857 2.39572 43.6418 1.9782C35.9623 -0.6594 26.0377 -0.6594 18.3582 1.9782C17.143 2.39572 16.4978 3.71549 16.9163 4.92633C17.3352 6.13718 18.6589 6.78026 19.8741 6.36351C20.5297 6.13834 21.2086 5.94175 21.898 5.76021L27.287 19.1328H15.7716C7.06141 19.1328 0 26.1712 0 34.8538V80.7188C0 89.4002 7.0618 96.439 15.7716 96.439H17.8909L6.3302 112H11.868L13.1103 110.328H48.8905L50.1328 112H55.6698L44.1091 96.439H46.2284C54.939 96.439 62 89.3998 62 80.7188V34.8538C62 26.1712 54.9386 19.1328 46.2284 19.1328ZM26.5585 4.88192C29.4825 4.53817 32.5175 4.53817 35.4415 4.88192L31 15.9028L26.5585 4.88192ZM23.1547 25.0766H38.8453C40.4302 25.0766 41.7155 26.357 41.7155 27.9378C41.7155 29.5175 40.4302 30.7983 38.8453 30.7983H23.1547C21.5698 30.7983 20.2845 29.5175 20.2845 27.9378C20.2845 26.357 21.5698 25.0766 23.1547 25.0766ZM15.2183 84.862C12.6309 84.862 10.5264 82.7643 10.5264 80.185V78.8649C10.5264 76.2864 12.6313 74.1887 15.2183 74.1887H17.6018C20.1895 74.1887 22.294 76.2864 22.294 78.8649V80.185C22.294 82.7643 20.1891 84.862 17.6018 84.862H15.2183ZM16.1533 106.233L19.1646 102.18H42.8362L45.8474 106.233H16.1533ZM39.7931 98.0855H22.2076L23.431 96.4393H38.5698L39.7931 98.0855ZM51.4739 80.185C51.4739 82.7643 49.369 84.862 46.7821 84.862H44.3986C41.8109 84.862 39.7063 82.7643 39.7063 80.185V78.8649C39.7063 76.2864 41.8112 74.1887 44.3986 74.1887H46.7821C49.3694 74.1887 51.4739 76.2864 51.4739 78.8649V80.185ZM53.4355 60.9656H8.56453V38.0464H53.4359V60.9656H53.4355Z" fill="#8181E5"/>
</svg>
