<svg width="659" height="113" viewBox="0 0 659 113" fill="none" xmlns="http://www.w3.org/2000/svg">
<path d="M101.368 40.016V14.96H84.952V86H101.368V78.512C104.344 83.216 110.008 86.768 117.88 86.768C131.032 86.768 141.496 76.016 141.496 59.12C141.496 42.224 131.128 31.664 117.88 31.664C110.2 31.664 104.344 35.216 101.368 40.016ZM124.792 59.12C124.792 67.664 119.224 72.464 112.984 72.464C106.84 72.464 101.272 67.76 101.272 59.216C101.272 50.672 106.84 45.968 112.984 45.968C119.224 45.968 124.792 50.576 124.792 59.12Z" fill="white"/>
<path d="M202.524 59.216C202.524 42.224 190.428 31.664 174.684 31.664C159.036 31.664 146.844 42.224 146.844 59.216C146.844 76.208 158.748 86.768 174.492 86.768C190.236 86.768 202.524 76.208 202.524 59.216ZM163.548 59.216C163.548 50.096 168.732 45.872 174.684 45.872C180.444 45.872 185.82 50.096 185.82 59.216C185.82 68.24 180.348 72.56 174.492 72.56C168.54 72.56 163.548 68.24 163.548 59.216Z" fill="white"/>
<path d="M248.193 86H264.513V54.704C264.513 40.304 256.257 31.856 243.873 31.856C236.673 31.856 230.913 35.024 227.649 39.536V32.432H211.233V86H227.649V56.912C227.649 49.616 231.681 45.584 237.921 45.584C244.161 45.584 248.193 49.616 248.193 56.912V86Z" fill="white"/>
<path d="M291.176 32.432L310.185 86H330.441L349.449 32.432H331.977L320.361 70.64L308.745 32.432H291.176Z" fill="white"/>
<path d="M408.774 59.216C408.774 42.224 396.678 31.664 380.934 31.664C365.286 31.664 353.094 42.224 353.094 59.216C353.094 76.208 364.998 86.768 380.742 86.768C396.486 86.768 408.774 76.208 408.774 59.216ZM369.798 59.216C369.798 50.096 374.982 45.872 380.934 45.872C386.694 45.872 392.07 50.096 392.07 59.216C392.07 68.24 386.598 72.56 380.742 72.56C374.79 72.56 369.798 68.24 369.798 59.216Z" fill="white"/>
<path d="M442.155 65.936L429.771 32.432H411.435L433.227 84.176L420.939 111.44H438.603L472.203 32.432H454.443L442.155 65.936Z" fill="white"/>
<path d="M474.875 59.12C474.875 76.016 485.34 86.768 498.396 86.768C506.363 86.768 512.027 83.12 515.004 78.416V86H531.419V32.432H515.004V40.016C512.124 35.312 506.46 31.664 498.492 31.664C485.34 31.664 474.875 42.224 474.875 59.12ZM515.004 59.216C515.004 67.76 509.531 72.464 503.292 72.464C497.147 72.464 491.579 67.664 491.579 59.12C491.579 50.576 497.147 45.968 503.292 45.968C509.531 45.968 515.004 50.672 515.004 59.216Z" fill="white"/>
<path d="M540.032 59.12C540.032 76.016 550.496 86.768 563.648 86.768C571.52 86.768 577.184 83.024 580.16 78.32V85.904C580.16 94.928 575.264 98.192 569.024 98.192C563.36 98.192 559.328 95.6 558.272 91.568H542.048C543.488 104.336 553.856 112.4 569.792 112.4C588.32 112.4 596.576 100.208 596.576 85.904V32.432H580.16V40.016C577.28 35.216 571.52 31.664 563.648 31.664C550.496 31.664 540.032 42.224 540.032 59.12ZM580.16 59.216C580.16 67.76 574.688 72.464 568.448 72.464C562.304 72.464 556.736 67.664 556.736 59.12C556.736 50.576 562.304 45.968 568.448 45.968C574.688 45.968 580.16 50.672 580.16 59.216Z" fill="white"/>
<path d="M632.068 44.816C637.54 44.816 642.148 48.176 642.148 54.032H621.604C622.564 48.08 626.692 44.816 632.068 44.816ZM657.7 68.24H640.228C638.884 71.12 636.292 73.424 631.684 73.424C626.404 73.424 622.084 70.16 621.508 63.152H658.66C658.852 61.52 658.948 59.888 658.948 58.352C658.948 42.032 647.908 31.664 632.26 31.664C616.324 31.664 605.188 42.224 605.188 59.216C605.188 76.208 616.516 86.768 632.26 86.768C645.604 86.768 655.108 78.704 657.7 68.24Z" fill="white"/>
<path d="M39.5178 16.3996H29.674L34.2807 4.93733C34.8697 5.09292 35.45 5.26143 36.0109 5.45444C36.2255 5.52827 36.4441 5.56336 36.6588 5.56336C37.4839 5.56336 38.2551 5.04591 38.5393 4.22257C38.897 3.1847 38.3455 2.05347 37.3067 1.6956C30.742 -0.5652 22.258 -0.5652 15.6933 1.6956C14.6545 2.05347 14.103 3.1847 14.4607 4.22257C14.8188 5.26044 15.9503 5.81165 16.9891 5.45444C17.5496 5.26143 18.13 5.09292 18.7193 4.93733L23.326 16.3996H13.4822C6.03637 16.3996 0 22.4325 0 29.8747V69.1875C0 76.6288 6.0367 82.662 13.4822 82.662H15.2938L5.4113 96H10.1452L11.2072 94.5668H41.7935L42.8555 96H47.5887L37.7062 82.662H39.5178C46.964 82.662 53 76.6284 53 69.1875V29.8747C53 22.4325 46.9636 16.3996 39.5178 16.3996ZM22.7032 4.1845C25.2028 3.88986 27.7972 3.88986 30.2968 4.1845L26.5 13.6309L22.7032 4.1845ZM19.7935 21.4942H33.2065C34.5613 21.4942 35.6601 22.5917 35.6601 23.9467C35.6601 25.3007 34.5613 26.3985 33.2065 26.3985H19.7935C18.4387 26.3985 17.3399 25.3007 17.3399 23.9467C17.3399 22.5917 18.4387 21.4942 19.7935 21.4942ZM13.0092 72.7388C10.7974 72.7388 8.9984 70.9408 8.9984 68.73V67.5985C8.9984 65.3883 10.7978 63.5903 13.0092 63.5903H15.0467C17.2588 63.5903 19.0578 65.3883 19.0578 67.5985V68.73C19.0578 70.9408 17.2585 72.7388 15.0467 72.7388H13.0092ZM13.8085 91.057L16.3826 87.5832H36.618L39.1922 91.057H13.8085ZM34.0167 84.0733H18.9839L20.0297 82.6623H32.971L34.0167 84.0733ZM44.0019 68.73C44.0019 70.9408 42.2026 72.7388 39.9912 72.7388H37.9536C35.7415 72.7388 33.9425 70.9408 33.9425 68.73V67.5985C33.9425 65.3883 35.7419 63.5903 37.9536 63.5903H39.9912C42.2029 63.5903 44.0019 65.3883 44.0019 67.5985V68.73ZM45.6787 52.2562H7.32129V32.6112H45.679V52.2562H45.6787Z" fill="#34297A"/>
</svg>
