<svg width="286" height="40" viewBox="0 0 286 40" fill="none" xmlns="http://www.w3.org/2000/svg">
<g clip-path="url(#clip0)">
<path fill-rule="evenodd" clip-rule="evenodd" d="M31.9501 16.3783H34.643C36.3327 16.3783 38.1135 16.7671 39.64 17.5159V16.1526C39.64 15.1782 37.7823 12.9941 33.2653 12.9941C31.1244 12.9941 29.2524 13.1861 27.6683 14.0166C27.2507 14.2422 26.4827 13.6229 25.9546 12.6389C25.4314 11.6597 25.3786 10.6756 25.801 10.4548C28.2923 9.14917 30.9852 8.97156 33.2653 8.97156C38.0559 8.97156 43.6577 11.4197 43.6577 16.1526V23.2137V24.1642C43.6577 28.4123 39.3904 31.0044 35.3294 31.0044H31.2541C27.1931 31.0044 22.9209 28.4123 22.9209 24.1642V23.2137C22.9257 18.8168 27.7211 16.3783 31.9501 16.3783ZM31.9501 20.4008C28.4363 20.4008 26.9483 22.2873 26.9483 23.2137V24.1642C26.9483 25.249 28.3403 26.9771 31.2589 26.9771H35.3342C38.2527 26.9771 39.6448 25.249 39.6448 24.1642V23.2137C39.6448 22.2825 38.1567 20.4008 34.6478 20.4008H31.9501ZM67.5627 22.7817C67.5627 24.553 69.7708 26.9435 73.875 26.9435C77.9839 26.9435 80.192 24.553 80.192 22.7817V17.1751C80.192 15.4038 77.9839 13.0133 73.875 13.0133C69.7708 13.0133 67.5579 15.4038 67.5579 17.1751L67.5627 22.7817ZM84.253 22.7817C84.253 27.8363 79.0112 31.0044 73.875 31.0044C68.7435 31.0044 63.5017 27.8363 63.5017 22.7817V17.1751C63.5017 12.1205 68.7435 8.95716 73.875 8.95716C79.0112 8.95716 84.253 12.1205 84.253 17.1751V22.7817V22.7817ZM118.714 16.3783H121.406C123.096 16.3783 124.877 16.7671 126.403 17.5159V16.1526C126.403 15.1782 124.546 12.9941 120.034 12.9941C117.893 12.9941 116.021 13.1861 114.432 14.0166C114.014 14.2422 113.246 13.6229 112.723 12.6437C112.2 11.6645 112.147 10.6804 112.565 10.4548C115.061 9.14917 117.754 8.97636 120.034 8.97636C124.824 8.97636 130.426 11.4245 130.426 16.1574V23.2185V24.169C130.426 28.4171 126.159 31.0044 122.098 31.0044H118.027C113.961 31.0044 109.694 28.4171 109.694 24.169V23.2185C109.694 18.812 114.485 16.3783 118.714 16.3783ZM118.714 20.4008C115.2 20.4008 113.717 22.2873 113.717 23.2137V24.1642C113.717 25.249 115.109 26.9771 118.027 26.9771H122.098C125.016 26.9771 126.408 25.249 126.408 24.1642V23.2137C126.408 22.2825 124.92 20.4008 121.411 20.4008H118.714ZM90.8244 28.8924V30.0588C90.8244 30.5388 89.9172 30.9228 88.794 30.9228C87.6755 30.9228 86.7683 30.5388 86.7683 30.0588V28.8924V23.5305V17.1751C86.7683 12.1205 92.0101 8.95236 97.1415 8.95236C102.278 8.95236 107.52 12.1157 107.52 17.1703L107.539 23.5305L107.544 28.8876L107.539 29.0844V30.0588C107.539 30.534 106.636 30.918 105.527 30.9228C104.39 30.9228 103.478 30.5388 103.478 30.0588V25.1674L103.463 17.1751C103.463 15.4086 101.25 13.0133 97.1463 13.0133C93.0421 13.0133 90.834 15.4038 90.834 17.1751L90.8244 28.8924ZM4.06096 28.8924V30.0588C4.06096 30.5388 3.15373 30.9228 2.03048 30.9228C0.907236 30.9228 0 30.5388 0 30.0588V28.8924V23.5305V17.1751C0 12.1205 5.24181 8.95716 10.378 8.95716C15.5142 8.95716 20.756 12.1205 20.756 17.1751L20.7704 23.5353L20.7752 28.8924L20.7704 29.0844V30.0588C20.7704 30.534 19.868 30.918 18.7592 30.9228C17.6167 30.9228 16.7095 30.5388 16.7095 30.0588V25.1722L16.6951 17.1751C16.6951 15.4086 14.4822 13.0133 10.378 13.0133C6.27385 13.0133 4.06096 15.4086 4.06096 17.1751V28.8924ZM56.9303 16.3447V10.9876V10.0804C56.9303 9.60518 57.8327 9.22117 58.9512 9.22117C60.0792 9.22117 60.9864 9.60518 60.9864 10.0804V10.9828V16.3447V28.8924V30.0588C60.9864 30.534 60.0792 30.9228 58.956 30.9228C57.8375 30.9228 56.9303 30.5388 56.9303 30.0588V28.8924V23.5305V16.3447ZM56.9303 2.4721V1.65607V0.864035C56.9303 0.388816 57.8375 0 58.956 0C60.0792 0 60.9864 0.384015 60.9864 0.864035V1.65607V2.4769V3.26413C60.9864 3.73935 60.0792 4.12817 58.956 4.12817C57.8375 4.12817 56.9303 3.73935 56.9303 3.26413V2.4721ZM46.6291 7.3923V2.03048V0.864035C46.6291 0.388816 47.5363 0.00480019 48.6499 0C49.778 0 50.6852 0.384015 50.6852 0.864035V2.03048V7.3923V9.35077H53.2341H54.4054C54.8806 9.35077 55.2646 10.258 55.2646 11.3717C55.2646 12.4997 54.8758 13.4069 54.4054 13.4069H53.2341H50.6852V28.8924V30.0588C50.6852 30.534 49.778 30.9228 48.6547 30.9228C47.5363 30.9228 46.6243 30.5388 46.6243 30.0588V28.8924V26.7755L46.6291 7.3923ZM133.393 7.3923V2.03048V0.864035C133.393 0.388816 134.295 0.00480019 135.413 0C136.541 0 137.449 0.384015 137.449 0.864035V2.03048V28.8924V30.0588C137.449 30.5388 136.541 30.9228 135.418 30.9228C134.295 30.9228 133.388 30.5388 133.388 30.0588V28.8924V26.7755L133.393 7.3923Z" fill="#9F8AF5"/>
<path fill-rule="evenodd" clip-rule="evenodd" d="M162.29 15.6438C161.383 14.343 159.463 13.1717 156.573 13.1717C152.469 13.1717 150.256 15.567 150.256 17.3287V20.0504L162.53 15.9846L162.29 15.6438ZM146.2 22.9977C146.19 22.8777 146.19 22.7289 146.2 22.6137V17.3335C146.2 12.2789 151.441 9.11555 156.578 9.11555C161.709 9.11555 166.951 12.2789 166.951 17.3335C166.951 17.9479 166.394 18.9847 165.564 19.2584L150.621 24.2121L150.856 24.5482C151.763 25.849 153.688 27.0203 156.573 27.0203C159.727 27.0203 162.17 25.4218 163.139 23.6265L163.562 22.8585C163.787 22.4361 164.767 22.5177 165.746 23.0409C166.725 23.5641 167.325 24.3466 167.1 24.769L166.778 25.4074C164.925 28.8395 161.003 31.0764 156.568 31.0764C151.489 31.0812 146.296 27.9707 146.2 22.9977ZM226.804 22.9977C226.795 22.8777 226.795 22.7337 226.804 22.6137V17.3335C226.804 12.2789 232.046 9.11555 237.182 9.11555C242.314 9.11075 247.556 12.2789 247.556 17.3335C247.556 17.9479 246.999 18.9847 246.164 19.2584L231.225 24.2121L231.461 24.5482C232.368 25.849 234.288 27.0203 237.182 27.0203C240.336 27.0203 242.775 25.4218 243.749 23.6265L244.171 22.8585C244.397 22.4409 245.376 22.5225 246.36 23.0409C247.34 23.5641 247.935 24.3466 247.714 24.769L247.397 25.4074C245.544 28.8395 241.623 31.0764 237.187 31.0764C232.099 31.0812 226.905 27.9707 226.804 22.9977ZM242.904 15.6438C241.992 14.343 240.072 13.1717 237.187 13.1717C233.083 13.1717 230.87 15.5622 230.87 17.3287V20.0504L243.139 15.9846L242.904 15.6438ZM196.064 22.8249C196.064 24.5914 198.277 26.9867 202.381 26.9867C206.485 26.9867 208.698 24.5914 208.698 22.8249V17.2951C208.698 15.5286 206.485 13.1381 202.381 13.1381C198.277 13.1381 196.064 15.5286 196.064 17.2951V18.0967V19.268V22.8249ZM212.754 22.8249C212.754 27.8843 207.512 31.0476 202.376 31.0476C200.149 31.0476 197.893 30.4476 196.059 29.358V37.9695V39.1407C196.059 39.616 195.152 40.0048 194.033 40.0048C192.91 40.0048 192.003 39.616 192.003 39.1407V37.9695V35.8526V24.625V22.8201V19.2632V18.0967V17.2951C192.003 12.2405 197.245 9.07715 202.376 9.07715C207.512 9.07715 212.754 12.2405 212.754 17.2951V22.8249ZM225.758 13.4165C221.241 13.4357 219.417 15.6198 219.417 16.5942V16.7863V23.3385V29.0123V30.1836C219.417 30.6588 218.51 31.0476 217.386 31.0476C216.263 31.0476 215.361 30.6588 215.361 30.1836V29.0123V23.6505V23.3385V16.7863V16.5942V11.4244V10.258C215.361 9.78278 216.268 9.39876 217.382 9.39876C218.51 9.39876 219.422 9.78278 219.422 10.258V11.1652C221.308 9.84998 223.622 9.41316 225.763 9.41316C226.238 9.39396 226.627 10.2916 226.627 11.4052C226.617 12.5141 226.233 13.4165 225.758 13.4165ZM265.067 10.5604C265.628 10.8052 265.624 11.6741 265.235 12.5957C264.841 13.5125 264.193 14.1173 263.804 13.9493C262.028 13.1189 260.612 12.8261 258.663 12.8261C256.114 12.8261 254.391 13.3973 254.391 15.063C254.391 15.8838 254.732 16.3878 255.529 16.8295C255.922 17.0455 256.426 17.2471 257.06 17.4679C257.689 17.6887 258.447 17.9239 259.359 18.2167C263.78 19.676 266.79 21.1544 266.79 24.7018C266.79 28.1531 263.622 31.0812 257.794 31.0812C255.438 31.0812 252.337 30.3132 250.076 28.9643L249.236 28.4987C248.876 28.3019 248.962 27.4523 249.432 26.6074C249.903 25.7578 250.575 25.2346 250.935 25.4362L251.511 25.7578C253.388 26.7803 255.394 27.4667 257.506 27.4667C259.849 27.4667 262.551 26.7995 262.551 24.7978C262.551 23.2473 261.116 22.6905 256.23 21.0104C252.169 19.6136 250.105 17.7943 250.105 14.8662C250.105 11.3764 253.599 9.11075 258.279 9.11075C261.457 9.11075 263.051 9.59557 265.067 10.5604ZM284.003 10.5604C284.565 10.8052 284.565 11.6741 284.171 12.5957C283.778 13.5125 283.13 14.1173 282.741 13.9493C280.97 13.1189 279.554 12.8261 277.6 12.8261C275.056 12.8261 273.328 13.3973 273.328 15.063C273.328 15.8838 273.669 16.3878 274.466 16.8247C274.859 17.0407 275.368 17.2423 275.992 17.4631C276.621 17.6839 277.384 17.9191 278.291 18.2119C282.712 19.6712 285.722 21.1496 285.722 24.697C285.722 28.1483 282.554 31.0764 276.722 31.0764C274.369 31.0764 271.269 30.3084 269.008 28.9595L268.163 28.4939C267.803 28.2971 267.889 27.4475 268.36 26.6026C268.83 25.753 269.497 25.2298 269.857 25.4314L270.438 25.753C272.31 26.7755 274.321 27.4619 276.429 27.4619C278.776 27.4619 281.479 26.7947 281.479 24.7882C281.479 23.2377 280.048 22.6857 275.157 21.0056C271.101 19.6088 269.032 17.7895 269.032 14.8614C269.032 11.3716 272.526 9.10595 277.206 9.10595C280.394 9.11075 281.983 9.59557 284.003 10.5604ZM187.03 9.39396C187.366 9.05795 188.278 9.42756 189.07 10.2148C189.872 11.0116 190.237 11.9285 189.901 12.2645L182.167 19.9976L190.217 28.0475C190.553 28.3835 190.184 29.3004 189.392 30.0924C188.6 30.8844 187.683 31.254 187.347 30.918L179.297 22.8681L171.247 30.918C170.911 31.254 169.994 30.8844 169.197 30.0924C168.405 29.3004 168.036 28.3835 168.372 28.0475L176.422 19.9976L168.684 12.2645C168.348 11.9285 168.717 11.0116 169.519 10.2148C170.306 9.42756 171.218 9.06275 171.554 9.39396L179.287 17.1319L187.03 9.39396Z" fill="#767FDE"/>
</g>
<defs>
<clipPath id="clip0">
<rect width="285.727" height="40" fill="white"/>
</clipPath>
</defs>
</svg>
